# xmcd
#
# Track frame offsets:
#	150
#	20202
#	34487
#	60170
#	84272
#	105755
#	145142
#	170592
#	194945
#	232982
#	243120
#	252855
#	262452
#	274007
#	285417
#	297452
#	309070
#	321192
#
# Disc length: 4438 seconds
#
# Revision: 4
# Processed by: cddbd v1.5.2PL0 Copyright (c) Steve Scherf et al.
# Submitted via: EZCDAudioConverter 1.3.4.1
#
DISCID=02115412
DTITLE=Leon Thomas - Spirits Known And Unknown
DYEAR=2002
DGENRE=
TTITLE0=The Creator Has A Master Plan (Peace)
TTITLE1=One
TTITLE2=Echoes
TTITLE3=Song For My Father
TTITLE4=Damn Nam (Ain't Goin' To Vietnam)
TTITLE5=Malcolm's Gone
TTITLE6=Let The Rain Fall On Me
TTITLE7=Um, Um, Um
TTITLE8=A Night In Tunisia
TTITLE9=Take The ''A'' Train [Alternate Take]
TTITLE10=Take The ''A'' Train [Alternate Take]
TTITLE11=Take The ''A'' Train [Master Take]
TTITLE12=Walkin' [Alternate Take]
TTITLE13=Walkin' [Master Take]
TTITLE14=Willow Weep For Me [Alternate Take]
TTITLE15=Willow Weep For Me [Master Take]
TTITLE16=If It Didn't Hurt So Much [Alternate Take]
TTITLE17=If It Didn't Hurt So Much [Master Take]
EXTD=
EXTT0=
EXTT1=
EXTT2=
EXTT3=
EXTT4=
EXTT5=
EXTT6=
EXTT7=
EXTT8=
EXTT9=
EXTT10=
EXTT11=
EXTT12=
EXTT13=
EXTT14=
EXTT15=
EXTT16=
EXTT17=
PLAYORDER=
